name rise49.5252peak65.1548fall88.8305.mot
datacolumns 19
datarows 18
range 12.28494900000000 12.31327900000000
endheader
time	ground_force1_vx	ground_force1_vy	ground_force1_vz	ground_force1_px	ground_force1_py	ground_force1_pz	ground_force2_vx	ground_force2_vy	ground_force2_vz	ground_force2_px	ground_force2_py	ground_force2_pz	ground_torque1_x	ground_torque1_y	ground_torque1_z	ground_torque2_x	ground_torque2_y	ground_torque2_z	
12.28494900000000	49.59571600000000	738.92992100000004	49.62258400000000	0.39569400000000	0.00000000000000	0.07945700000000	0.00000000000000	0.00000000000000	0.00000000000000	0.00000000000000	0.00000000000000	0.00000000000000	0.00000000000000	29.94253300000000	0.00000000000000	0.00000000000000	0.00000000000000	0.00000000000000	
12.28661100000000	48.90318000000000	741.51393499999995	49.65723400000000	0.39397600000000	0.00000000000000	0.07950800000000	0.00000000000000	0.00000000000000	0.00000000000000	0.00000000000000	0.00000000000000	0.00000000000000	0.00000000000000	29.90874300000000	0.00000000000000	0.00000000000000	0.00000000000000	0.00000000000000	
12.28828500000000	48.22569500000000	744.02303500000005	49.69649000000000	0.39227200000000	0.00000000000000	0.07956200000000	0.00000000000000	0.00000000000000	0.00000000000000	0.00000000000000	0.00000000000000	0.00000000000000	0.00000000000000	29.87748500000000	0.00000000000000	0.00000000000000	0.00000000000000	0.00000000000000	
12.28994500000000	47.56366200000000	746.45477600000004	49.74028900000000	0.39058300000000	0.00000000000000	0.07961900000000	0.00000000000000	0.00000000000000	0.00000000000000	0.00000000000000	0.00000000000000	0.00000000000000	0.00000000000000	29.84881000000000	0.00000000000000	0.00000000000000	0.00000000000000	0.00000000000000	
12.29161900000000	46.91739200000000	748.80671500000005	49.78849000000000	0.38891100000000	0.00000000000000	0.07967800000000	0.00000000000000	0.00000000000000	0.00000000000000	0.00000000000000	0.00000000000000	0.00000000000000	0.00000000000000	29.82271500000000	0.00000000000000	0.00000000000000	0.00000000000000	0.00000000000000	
12.29328200000000	46.28710900000000	751.07642899999996	49.84087800000000	0.38725700000000	0.00000000000000	0.07973900000000	0.00000000000000	0.00000000000000	0.00000000000000	0.00000000000000	0.00000000000000	0.00000000000000	0.00000000000000	29.79914300000000	0.00000000000000	0.00000000000000	0.00000000000000	0.00000000000000	
12.29495000000000	45.67295400000000	753.26153499999998	49.89716900000000	0.38562200000000	0.00000000000000	0.07980300000000	0.00000000000000	0.00000000000000	0.00000000000000	0.00000000000000	0.00000000000000	0.00000000000000	0.00000000000000	29.77799100000000	0.00000000000000	0.00000000000000	0.00000000000000	0.00000000000000	
12.29661100000000	45.07498800000000	755.35970799999996	49.95701600000000	0.38400700000000	0.00000000000000	0.07986800000000	0.00000000000000	0.00000000000000	0.00000000000000	0.00000000000000	0.00000000000000	0.00000000000000	0.00000000000000	29.75911200000000	0.00000000000000	0.00000000000000	0.00000000000000	0.00000000000000	
12.29828600000000	44.49319600000000	757.36869700000000	50.02001400000000	0.38241300000000	0.00000000000000	0.07993500000000	0.00000000000000	0.00000000000000	0.00000000000000	0.00000000000000	0.00000000000000	0.00000000000000	0.00000000000000	29.74231500000000	0.00000000000000	0.00000000000000	0.00000000000000	0.00000000000000	
12.29995000000000	43.92749300000000	759.28634099999999	50.08570500000000	0.38084100000000	0.00000000000000	0.08000300000000	0.00000000000000	0.00000000000000	0.00000000000000	0.00000000000000	0.00000000000000	0.00000000000000	0.00000000000000	29.72737700000000	0.00000000000000	0.00000000000000	0.00000000000000	0.00000000000000	
12.30161500000000	43.37772700000000	761.11058700000001	50.15358300000000	0.37929200000000	0.00000000000000	0.08007300000000	0.00000000000000	0.00000000000000	0.00000000000000	0.00000000000000	0.00000000000000	0.00000000000000	0.00000000000000	29.71403900000000	0.00000000000000	0.00000000000000	0.00000000000000	0.00000000000000	
12.30327900000000	42.84368000000000	762.83950500000003	50.22310500000000	0.37776600000000	0.00000000000000	0.08014300000000	0.00000000000000	0.00000000000000	0.00000000000000	0.00000000000000	0.00000000000000	0.00000000000000	0.00000000000000	29.70201700000000	0.00000000000000	0.00000000000000	0.00000000000000	0.00000000000000	
12.30494600000000	42.32508000000000	764.47130200000004	50.29368900000000	0.37626400000000	0.00000000000000	0.08021500000000	0.00000000000000	0.00000000000000	0.00000000000000	0.00000000000000	0.00000000000000	0.00000000000000	0.00000000000000	29.69100000000000	0.00000000000000	0.00000000000000	0.00000000000000	0.00000000000000	
12.30661800000000	41.82159900000000	766.00433099999998	50.36472700000000	0.37478600000000	0.00000000000000	0.08028800000000	0.00000000000000	0.00000000000000	0.00000000000000	0.00000000000000	0.00000000000000	0.00000000000000	0.00000000000000	29.68066000000000	0.00000000000000	0.00000000000000	0.00000000000000	0.00000000000000	
12.30828200000000	41.33286000000000	767.43711099999996	50.43559000000000	0.37333300000000	0.00000000000000	0.08036100000000	0.00000000000000	0.00000000000000	0.00000000000000	0.00000000000000	0.00000000000000	0.00000000000000	0.00000000000000	29.67065200000000	0.00000000000000	0.00000000000000	0.00000000000000	0.00000000000000	
12.30994600000000	40.85844300000000	768.76833299999998	50.50563100000000	0.37190600000000	0.00000000000000	0.08043400000000	0.00000000000000	0.00000000000000	0.00000000000000	0.00000000000000	0.00000000000000	0.00000000000000	0.00000000000000	29.66062000000000	0.00000000000000	0.00000000000000	0.00000000000000	0.00000000000000	
12.31161700000000	40.39788800000000	769.99686799999995	50.57419400000000	0.37050400000000	0.00000000000000	0.08050800000000	0.00000000000000	0.00000000000000	0.00000000000000	0.00000000000000	0.00000000000000	0.00000000000000	0.00000000000000	29.65020000000000	0.00000000000000	0.00000000000000	0.00000000000000	0.00000000000000	
12.31327900000000	39.95070000000000	771.12178400000005	50.64062000000000	0.36912800000000	0.00000000000000	0.08058200000000	0.00000000000000	0.00000000000000	0.00000000000000	0.00000000000000	0.00000000000000	0.00000000000000	0.00000000000000	29.63902400000000	0.00000000000000	0.00000000000000	0.00000000000000	0.00000000000000	
